{
  "accessors": [
    {
      "bufferView": 2,
      "componentType": 5126,
      "count": 5044,
      "max": [
        0.9500001072883606,
        0.95000898838043213,
        0.065290279686450958
      ],
      "min": [
        -0.95000004768371582,
        -0.95004630088806152,
        -0.069476790726184845
      ],
      "type": "VEC3"
    },
    {
      "bufferView": 2,
      "byteOffset": 60528,
      "componentType": 5126,
      "count": 5044,
      "max": [
        0.75007182359695435,
        0.75759679079055786,
        0.99999904632568359
      ],
      "min": [
        -0.98061442375183105,
        -0.81964784860610962,
        0.18249635398387909
      ],
      "type": "VEC3"
    },
    {
      "bufferView": 3,
      "componentType": 5126,
      "count": 5044,
      "max": [
        1,
        0.22118346393108368,
        0.98312228918075562,
        1
      ],
      "min": [
        0.18294966220855713,
        -0.47713199257850647,
        -0.76396423578262329,
        1
      ],
      "type": "VEC4"
    },
    {
      "bufferView": 1,
      "componentType": 5126,
      "count": 5044,
      "max": [
        0.97500014305114746,
        0.9750138521194458
      ],
      "min": [
        0.024999886751174927,
        0.024986147880554199
      ],
      "type": "VEC2"
    },
    {
      "bufferView": 0,
      "componentType": 5125,
      "count": 29259,
      "max": [
        5043
      ],
      "min": [
        0
      ],
      "type": "SCALAR"
    },
    {
      "bufferView": 2,
      "byteOffset": 121056,
      "componentType": 5126,
      "count": 812,
      "max": [
        0.9500001072883606,
        0.95000898838043213,
        0.04822879284620285
      ],
      "min": [
        -0.95000004768371582,
        -0.95004630088806152,
        -0.090949207544326782
      ],
      "type": "VEC3"
    },
    {
      "bufferView": 2,
      "byteOffset": 130800,
      "componentType": 5126,
      "count": 812,
      "max": [
        1,
        1,
        8.1487951320013963e-07
      ],
      "min": [
        -1,
        -1,
        -1
      ],
      "type": "VEC3"
    },
    {
      "bufferView": 3,
      "byteOffset": 80704,
      "componentType": 5126,
      "count": 812,
      "max": [
        1,
        1,
        1,
        1
      ],
      "min": [
        -6.9591992541973013e-06,
        -1,
        -3.3754653260865963e-13,
        -1
      ],
      "type": "VEC4"
    },
    {
      "bufferView": 1,
      "byteOffset": 40352,
      "componentType": 5126,
      "count": 812,
      "max": [
        0.97500014305114746,
        0.9750138521194458
      ],
      "min": [
        0.024999886751174927,
        0.024986147880554199
      ],
      "type": "VEC2"
    },
    {
      "bufferView": 0,
      "byteOffset": 117036,
      "componentType": 5125,
      "count": 2004,
      "max": [
        811
      ],
      "min": [
        0
      ],
      "type": "SCALAR"
    }
  ],
  "asset": {
    "extras": {
      "author": "SebastianSosnowski (https://sketchfab.com/SebastianSosnowski)",
      "license": "CC-BY-4.0 (http://creativecommons.org/licenses/by/4.0/)",
      "source": "https://sketchfab.com/models/ce9c009b517b421eab8c8429b536382f",
      "title": "Moon - Petavius crater"
    },
    "generator": "Sketchfab-3.47.2",
    "version": "2.0"
  },
  "bufferViews": [
    {
      "buffer": 0,
      "byteLength": 125052,
      "byteOffset": 0,
      "name": "floatBufferViews",
      "target": 34963
    },
    {
      "buffer": 0,
      "byteLength": 46848,
      "byteOffset": 125052,
      "byteStride": 8,
      "name": "floatBufferViews",
      "target": 34962
    },
    {
      "buffer": 0,
      "byteLength": 140544,
      "byteOffset": 171900,
      "byteStride": 12,
      "name": "floatBufferViews",
      "target": 34962
    },
    {
      "buffer": 0,
      "byteLength": 93696,
      "byteOffset": 312444,
      "byteStride": 16,
      "name": "floatBufferViews",
      "target": 34962
    }
  ],
  "buffers": [
    {
      "byteLength": 406140,
      "uri": "scene.bin"
    }
  ],
  "images": [
    {
      "uri": "textures/material_1_normal.png"
    },
    {
      "uri": "textures/material_1_metallicRoughness.png"
    },
    {
      "uri": "textures/material_1_baseColor.jpeg"
    }
  ],
  "materials": [
    {
      "doubleSided": false,
      "name": "material_1",
      "normalTexture": {
        "index": 0,
        "scale": 1,
        "texCoord": 0
      },
      "occlusionTexture": {
        "index": 1,
        "strength": 1,
        "texCoord": 0
      },
      "pbrMetallicRoughness": {
        "baseColorFactor": [
          1,
          1,
          1,
          1
        ],
        "baseColorTexture": {
          "index": 2,
          "texCoord": 0
        },
        "metallicFactor": 0,
        "metallicRoughnessTexture": {
          "index": 1,
          "texCoord": 0
        },
        "roughnessFactor": 1
      }
    },
    {
      "doubleSided": true,
      "emissiveFactor": [
        0,
        0,
        0
      ],
      "name": "material",
      "pbrMetallicRoughness": {
        "baseColorFactor": [
          0,
          0,
          0,
          1
        ],
        "metallicFactor": 1,
        "roughnessFactor": 0
      }
    }
  ],
  "meshes": [
    {
      "name": "Petavius_ZB_LP_1_0",
      "primitives": [
        {
          "attributes": {
            "NORMAL": 1,
            "POSITION": 0,
            "TANGENT": 2,
            "TEXCOORD_0": 3
          },
          "indices": 4,
          "material": 0,
          "mode": 4
        }
      ]
    },
    {
      "name": "Petavius_ZB_LP_2_0",
      "primitives": [
        {
          "attributes": {
            "NORMAL": 6,
            "POSITION": 5,
            "TANGENT": 7,
            "TEXCOORD_0": 8
          },
          "indices": 9,
          "material": 1,
          "mode": 4
        }
      ]
    }
  ],
  "nodes": [
    {
      "children": [
        1
      ],
      "name": "RootNode (gltf orientation matrix)",
      "rotation": [
        -0.70710678118654746,
        -0,
        -0,
        0.70710678118654757
      ]
    },
    {
      "children": [
        2
      ],
      "name": "RootNode (model correction matrix)"
    },
    {
      "children": [
        3
      ],
      "matrix": [
        1,
        0,
        0,
        0,
        0,
        0,
        1,
        0,
        0,
        -1,
        0,
        0,
        0,
        0,
        0,
        1
      ],
      "name": "c066cd4c684f4c348f58d709042cedc9.fbx"
    },
    {
      "children": [
        4
      ],
      "name": "RootNode"
    },
    {
      "children": [
        5,
        6
      ],
      "matrix": [
        1,
        0,
        0,
        0,
        0,
        2.2204460492503131e-16,
        -1,
        0,
        0,
        1,
        2.2204460492503131e-16,
        0,
        0,
        0,
        0,
        1
      ],
      "name": "Petavius_ZB_LP"
    },
    {
      "mesh": 0,
      "name": "Petavius_ZB_LP_1_0"
    },
    {
      "mesh": 1,
      "name": "Petavius_ZB_LP_2_0"
    }
  ],
  "samplers": [
    {
      "magFilter": 9729,
      "minFilter": 9987,
      "wrapS": 10497,
      "wrapT": 10497
    }
  ],
  "scene": 0,
  "scenes": [
    {
      "name": "OSG_Scene",
      "nodes": [
        0
      ]
    }
  ],
  "textures": [
    {
      "sampler": 0,
      "source": 0
    },
    {
      "sampler": 0,
      "source": 1
    },
    {
      "sampler": 0,
      "source": 2
    }
  ]
}

